<svg width="24" height="24" viewBox="0 0 24 24" fill="none" xmlns="http://www.w3.org/2000/svg">
<path fill-rule="evenodd" clip-rule="evenodd" d="M12.6212 1.34867C12.2735 1.01712 11.7267 1.01712 11.379 1.34867L1.379 10.8844C1.20089 11.0543 1.1001 11.2897 1.1001 11.5358V22C1.1001 22.4971 1.50304 22.9 2.0001 22.9H9.0001V22H9.00166V16.8984C9.00166 15.2425 10.3441 13.9 12.0001 13.9C13.6561 13.9 14.9985 15.2425 14.9985 16.8984V22H15.0001V22.9H22.0001C22.4972 22.9 22.9001 22.4971 22.9001 22V11.5358C22.9001 11.2897 22.7993 11.0543 22.6212 10.8844L12.6212 1.34867ZM16.7985 21.1H21.1001V11.9212L12.0001 3.24361L2.9001 11.9212V21.1H7.20166V16.8984C7.20166 14.2483 9.34999 12.1 12.0001 12.1C14.6502 12.1 16.7985 14.2483 16.7985 16.8984V21.1Z" fill="black"/>
</svg>
